<?xml version="1.0" encoding="utf-8"?>
<!-- Generator: Adobe Illustrator 26.2.1, SVG Export Plug-In . SVG Version: 6.00 Build 0)  -->
<svg version="1.1" id="Ebene_1" xmlns="http://www.w3.org/2000/svg" xmlns:xlink="http://www.w3.org/1999/xlink" x="0px" y="0px"
	 viewBox="0 0 428.4 103" style="enable-background:new 0 0 428.4 103;" xml:space="preserve">
<style type="text/css">
	.st0{fill:#E1251B;}
</style>
<g>
	<path class="st0" d="M346,69.5c0.1-1.3-0.3-2-1.5-2h-9.2c-1.1,0-2.1,0.9-2.1,2.1c0,1.1,1,2.1,2.1,2.1h4.8c-1.1,2.7-3.2,3.9-6.1,3.9
		c-4.1,0-7.4-3.3-7.4-7.5c0-4.2,3.2-7.5,7.4-7.5c1.6,0,3.2,0.5,4.3,1.3c0.9,0.6,2.2,0.6,3.1-0.2c1-0.9,1.1-2.9,0.2-3.6
		c-2.1-1.6-4.6-2.6-7.7-2.6c-7.1,0-12.6,5.6-12.6,12.6c0,6.9,5.5,12.5,12.6,12.5C340.7,80.8,345.2,77.3,346,69.5 M318.6,63.8
		c-0.1-4-2.7-7.9-8.2-7.9h-7.5c-1.6,0-2.5,1.2-2.5,2.7v19.6c0,1.3,1.2,2.4,2.6,2.4c1.4,0,2.6-1.1,2.6-2.4v-6.4h2.4l4.7,7.8
		c0.7,1.1,2.2,1.4,3.4,0.7c1.2-0.7,1.7-2.3,1-3.4l-4-5.7C316.7,70.1,318.5,67,318.6,63.8 M310.5,60.5c2,0,3,1.9,3,3.5
		c0,1.6-1.1,3.5-3.1,3.5h-4.7v-6.9H310.5z M285.6,80.8c5.1,0,9.5-3.6,9.5-9.1V58.1c0-1.3-1.2-2.4-2.6-2.4c-1.4,0-2.6,1.1-2.6,2.4
		v13.5c0,2.5-2.1,4.2-4.3,4.2c-2.2,0-4.3-1.7-4.3-4.2V58.1c0-1.3-1.2-2.4-2.6-2.4c-1.4,0-2.6,1.1-2.6,2.4v13.5
		C276.1,77.2,280.6,80.8,285.6,80.8L285.6,80.8z M263.8,69.8c1.9,0,2.7,1.6,2.7,3c0,1.5-0.9,3.1-2.6,3.1h-5v-6H263.8z M258.9,65.7
		v-5.2h4.1c1.5,0,2.3,1.1,2.3,2.6c0,1.5-0.9,2.6-2.3,2.6H258.9z M264.2,80.4c4.9,0,7.8-3.5,7.8-7.5c0-2-1.4-4.8-4.6-5.6
		c2.5-1,3.3-3,3.3-4.6c0-4.2-2.8-6.8-7.3-6.8h-7.8c-1.3,0-2,1-2.1,2.2v20.1c0,1.2,0.7,2.2,2.1,2.2H264.2z M224.5,68.2
		c0,6.9,5.5,12.5,12.4,12.5c7,0,12.5-5.6,12.5-12.5c0-7-5.5-12.6-12.5-12.6C230,55.6,224.5,61.2,224.5,68.2 M229.7,68.2
		c0-4.1,3.1-7.5,7.2-7.5s7.3,3.5,7.3,7.5c0,4.1-3.1,7.5-7.3,7.5S229.7,72.3,229.7,68.2 M200.6,68.2c0,7,5.3,12.6,12.3,12.6
		c3.5,0,6.5-1.3,8.7-3.4c0.9-0.9,0.7-2.7-0.3-3.6c-1-0.9-2.5-0.8-3.3,0c-1.3,1.2-3,1.9-5,1.9c-4.1,0-7.1-3.3-7.1-7.5
		s3.1-7.5,7.1-7.5c2,0,3.7,0.7,5,1.9c0.9,0.8,2.3,0.8,3.3,0c1-0.9,1.2-2.7,0.3-3.6c-2.2-2.1-5.2-3.4-8.7-3.4
		C205.9,55.6,200.6,61.2,200.6,68.2"/>
	<path class="st0" d="M425,36.5c0.9,0,1.6-0.7,1.6-1.5c0-0.9-0.7-1.6-1.6-1.6h-8.5v-7.8h9.8c0.9,0,1.6-0.7,1.6-1.6
		c0-0.9-0.7-1.5-1.6-1.5h-11.5c-0.9,0-1.7,0.8-1.7,1.7v21.1c0,0.9,0.8,1.7,1.7,1.7h11.9c0.9,0,1.6-0.7,1.6-1.5
		c0-0.9-0.7-1.6-1.6-1.6h-10.3v-7.4H425z M407.9,47c0.9,0,1.6-0.7,1.6-1.6c0-0.9-0.7-1.5-1.6-1.5h-8.6V24c0-0.9-0.7-1.7-1.7-1.7
		c-0.9,0-1.6,0.7-1.6,1.7v21.3c0,0.9,0.8,1.7,1.7,1.7H407.9z M386.4,38.6c0,3.4-2.6,5.6-5.7,5.6c-3,0-5.7-2.2-5.7-5.6V24
		c0-0.9-0.7-1.7-1.7-1.7c-0.9,0-1.6,0.7-1.6,1.7v14.6c0,5.3,4.1,8.8,9,8.8c4.8,0,9-3.5,9-8.8V24c0-0.9-0.7-1.7-1.7-1.7
		c-0.9,0-1.6,0.7-1.6,1.7V38.6z M362.2,45.5c0,0.9,0.7,1.7,1.6,1.7c1,0,1.7-0.7,1.7-1.7V24c0-0.9-0.7-1.7-1.7-1.7
		c-0.9,0-1.6,0.7-1.6,1.7v9.3h-11.9V24c0-0.9-0.7-1.7-1.7-1.7c-0.9,0-1.6,0.7-1.6,1.7v21.5c0,0.9,0.7,1.7,1.6,1.7
		c1,0,1.7-0.7,1.7-1.7v-9.2h11.9V45.5z M321.5,34.7c0,7,5.5,12.6,12.4,12.6c3.2,0,6.1-1.1,8.2-3.1c0.6-0.6,0.7-1.6,0.2-2.3
		c-0.6-0.7-1.7-0.7-2.4-0.2c-1.6,1.4-3.6,2.3-6,2.3c-5.1,0-9.1-4.2-9.1-9.4c0-5.2,4-9.4,9.1-9.4c2.4,0,4.4,0.9,6,2.4
		c0.7,0.6,1.7,0.5,2.4-0.2c0.6-0.7,0.5-1.7-0.2-2.3c-2.1-1.9-4.9-3.1-8.2-3.1C327,22.2,321.5,27.8,321.5,34.7 M304.8,40.8
		c-0.2-0.7-0.8-1.2-1.5-1.2c-0.9,0-1.6,0.5-1.6,1.5c0,0.2,0,0.5,0.1,0.7c1,3.1,3.9,5.4,8.2,5.4c5.3,0,8.3-3.4,8.3-7.4
		c0-3.3-2.4-5.7-6.6-6.7l-3.2-0.8c-3.1-0.7-3.5-2.3-3.5-3.4c0-2.2,2.2-3.7,4.6-3.7c2.2,0,4,0.9,4.6,3.2c0.2,0.9,0.9,1.1,1.5,1.1
		c1.2,0,1.6-0.7,1.6-1.5c0-0.3,0-0.6-0.1-0.8c-0.9-3.2-3.7-5.2-7.6-5.2c-4.2,0-7.9,2.8-7.9,6.9c0,2.1,0.8,5.1,6,6.4l3.2,0.8
		c2.1,0.5,4.2,1.6,4.2,4c0,2-1.7,4-5,4C307.3,44.2,305.3,42.6,304.8,40.8 M293.1,45.5c0,0.9,0.7,1.7,1.6,1.7c1,0,1.7-0.7,1.7-1.7V24
		c0-0.9-0.7-1.7-1.7-1.7c-0.9,0-1.6,0.7-1.6,1.7v9.3h-11.9V24c0-0.9-0.7-1.7-1.7-1.7c-0.9,0-1.6,0.7-1.6,1.7v21.5
		c0,0.9,0.7,1.7,1.6,1.7c1,0,1.7-0.7,1.7-1.7v-9.2h11.9V45.5z M252.4,34.7c0,7,5.5,12.6,12.4,12.6c3.2,0,6.1-1.1,8.2-3.1
		c0.6-0.6,0.7-1.6,0.2-2.3c-0.6-0.7-1.7-0.7-2.4-0.2c-1.6,1.4-3.6,2.3-6,2.3c-5.1,0-9.1-4.2-9.1-9.4c0-5.2,4-9.4,9.1-9.4
		c2.3,0,4.4,0.9,6,2.4c0.7,0.6,1.7,0.5,2.4-0.2c0.6-0.7,0.5-1.7-0.2-2.3c-2.1-1.9-5-3.1-8.2-3.1C257.9,22.2,252.4,27.8,252.4,34.7
		 M227.4,34.8c0-5.2,4-9.4,9.1-9.4c5.2,0,9.1,4.2,9.1,9.4c0,5.2-4,9.4-9.1,9.4C231.3,44.1,227.4,40,227.4,34.8 M224.1,34.8
		c0,6.9,5.4,12.6,12.4,12.6c7,0,12.5-5.6,12.5-12.6c0-7-5.4-12.6-12.5-12.6C229.5,22.2,224.1,27.8,224.1,34.8 M215.8,45.5
		c0,0.9,0.7,1.7,1.6,1.7c1,0,1.7-0.7,1.7-1.7V24c0-0.9-0.7-1.7-1.7-1.7c-0.9,0-1.6,0.7-1.6,1.7v9.3h-11.9V24c0-0.9-0.7-1.7-1.7-1.7
		c-0.9,0-1.6,0.7-1.6,1.7v21.5c0,0.9,0.7,1.7,1.6,1.7c1,0,1.7-0.7,1.7-1.7v-9.2h11.9V45.5z"/>
</g>
<path class="st0" d="M132.5,80.8c-16.1,0-29.3-13.1-29.3-29.3c0-16.1,13.1-29.3,29.3-29.3s29.3,13.1,29.3,29.3
	C161.8,67.6,148.6,80.8,132.5,80.8 M132.5,0C104.1,0,81,23.1,81,51.5H81c0,16.1-13.1,29.3-29.3,29.3S22.4,67.6,22.4,51.5
	c0-16.1,13.1-29.3,29.3-29.3H53c6.1,0,11.1-5,11.1-11.1C64.2,5,59.2,0,53,0h-3.3c-0.5,0-1,0-1.5,0.1C21.5,1.9,0.2,24.2,0.2,51.5
	c0,28.4,23.1,51.5,51.5,51.5c16.4,0,31-7.7,40.4-19.6c9.4,11.9,24,19.6,40.4,19.6c28.4,0,51.5-23.1,51.5-51.5S160.9,0,132.5,0"/>
</svg>
